<svg version="1.1" xmlns="http://www.w3.org/2000/svg" viewBox="0 0 1298.459716796875 448" width="1298.459716796875" height="448" filter="invert(93%) hue-rotate(180deg)">
  <!-- svg-source:excalidraw -->
  
  <defs>
    <style class="style-fonts">
      @font-face {
        font-family: "Virgil";
        src: url("https://excalidraw.com/Virgil.woff2");
      }
      @font-face {
        font-family: "Cascadia";
        src: url("https://excalidraw.com/Cascadia.woff2");
      }
    </style>
    
  </defs>
  <rect x="0" y="0" width="1298.459716796875" height="448" fill="#ffffff"></rect><g stroke-linecap="round" transform="translate(10 40) rotate(0 113 61.5)"><path d="M30.75 0 M30.75 0 C80.35 1.98, 130.65 1.48, 195.25 0 M30.75 0 C74.01 -1.32, 116.14 -0.39, 195.25 0 M195.25 0 C214.3 -1.45, 227.42 8.58, 226 30.75 M195.25 0 C216.3 0.26, 228.24 10.93, 226 30.75 M226 30.75 C227.17 52.12, 223.62 76.99, 226 92.25 M226 30.75 C226.42 46.83, 225.93 62.47, 226 92.25 M226 92.25 C224.03 111.95, 214 122.16, 195.25 123 M226 92.25 C225.68 113.14, 214.77 125.01, 195.25 123 M195.25 123 C157.78 122.4, 120.18 123.68, 30.75 123 M195.25 123 C145.83 122.49, 96.68 121.86, 30.75 123 M30.75 123 C9.94 122.71, 0.95 113.18, 0 92.25 M30.75 123 C10.54 122.36, 1.01 112.01, 0 92.25 M0 92.25 C-2.1 67.45, -0.98 42.99, 0 30.75 M0 92.25 C1.01 72.65, 0.71 51.55, 0 30.75 M0 30.75 C0.42 11.82, 11.32 -1.12, 30.75 0 M0 30.75 C-1.17 12.35, 8.04 -0.5, 30.75 0" stroke="#1e1e1e" stroke-width="1" fill="none"></path></g><g transform="translate(30 83) rotate(0 93.40995025634766 12.5)"><text x="0" y="0" font-family="Virgil, Segoe UI Emoji" font-size="20px" fill="#1e1e1e" text-anchor="start" style="white-space: pre;" direction="ltr" dominant-baseline="text-before-edge">AUDIO QUESTION</text></g><g stroke-linecap="round" transform="translate(460 64) rotate(0 127.5 47)"><path d="M23.5 0 M23.5 0 C93.11 0.82, 163.46 1.44, 231.5 0 M23.5 0 C106.23 -2.31, 187.99 -2.42, 231.5 0 M231.5 0 C245.49 -1.53, 256.66 9.24, 255 23.5 M231.5 0 C245.46 0.31, 254.61 8.36, 255 23.5 M255 23.5 C256.52 35.34, 256.49 47.45, 255 70.5 M255 23.5 C255.45 36.97, 254.22 51.52, 255 70.5 M255 70.5 C253.05 86.42, 248.43 94.03, 231.5 94 M255 70.5 C253.05 86.28, 249.34 94.09, 231.5 94 M231.5 94 C184.67 93.18, 137.49 93.1, 23.5 94 M231.5 94 C174.82 92.99, 116.39 93.77, 23.5 94 M23.5 94 C6.33 92.48, 0.26 85.68, 0 70.5 M23.5 94 C7.53 94.41, 1.87 88.24, 0 70.5 M0 70.5 C-1.47 54.08, -1.86 38.09, 0 23.5 M0 70.5 C-0.54 52.16, -1.25 34.64, 0 23.5 M0 23.5 C1.29 7.98, 6.73 1.16, 23.5 0 M0 23.5 C-1.91 6.67, 8.27 0.58, 23.5 0" stroke="#1e1e1e" stroke-width="1" fill="none"></path></g><g transform="translate(510.13004302978516 98.5) rotate(0 77.36995697021484 12.5)"><text x="77.36995697021484" y="0" font-family="Virgil, Segoe UI Emoji" font-size="20px" fill="#1e1e1e" text-anchor="middle" style="white-space: pre;" direction="ltr" dominant-baseline="text-before-edge">LLM RESPONSE</text></g><g stroke-linecap="round"><g transform="translate(243 113) rotate(0 105.83890795178706 0.10135242548574297)"><path d="M0.06 1.13 C35.56 1.15, 177.42 -0.81, 213.05 -0.93 M-1.37 0.68 C33.98 0.91, 176.32 0.51, 212.12 0.12" stroke="#1e1e1e" stroke-width="1" fill="none"></path></g><g transform="translate(243 113) rotate(0 105.83890795178706 0.10135242548574297)"><path d="M185.88 10.63 C191.02 8.72, 201.78 3.63, 210.44 -1.5 M183.73 11.31 C189.38 7.98, 196.19 5.47, 211.36 0.25" stroke="#1e1e1e" stroke-width="1" fill="none"></path></g><g transform="translate(243 113) rotate(0 105.83890795178706 0.10135242548574297)"><path d="M185.76 -9.89 C190.76 -5.61, 201.56 -4.52, 210.44 -1.5 M183.6 -9.21 C189.23 -8.21, 196.07 -6.38, 211.36 0.25" stroke="#1e1e1e" stroke-width="1" fill="none"></path></g></g><mask></mask><g stroke-linecap="round" transform="translate(463 295) rotate(0 125.5 47)"><path d="M23.5 0 M23.5 0 C74.34 -0.93, 125.78 -2.39, 227.5 0 M23.5 0 C85.51 0.78, 145.97 0.02, 227.5 0 M227.5 0 C241.73 1.33, 251.2 5.94, 251 23.5 M227.5 0 C241.29 0.85, 250.64 6.05, 251 23.5 M251 23.5 C249.99 38.72, 248.89 54.44, 251 70.5 M251 23.5 C251.69 35.28, 251.34 45.54, 251 70.5 M251 70.5 C251.4 85.49, 243.86 94.67, 227.5 94 M251 70.5 C252.58 84.63, 242.83 95.38, 227.5 94 M227.5 94 C186.37 93.83, 145.43 93.12, 23.5 94 M227.5 94 C168.73 93.49, 110.76 93.75, 23.5 94 M23.5 94 C6.43 95.58, -1.63 84.82, 0 70.5 M23.5 94 C8.25 92.83, 1.64 85.26, 0 70.5 M0 70.5 C1.25 56.02, 1.45 39.06, 0 23.5 M0 70.5 C-0.17 54.02, 1.03 35.71, 0 23.5 M0 23.5 C1.38 8.71, 8.55 -1.79, 23.5 0 M0 23.5 C-1.88 10.03, 9.84 1.63, 23.5 0" stroke="#1e1e1e" stroke-width="1" fill="none"></path></g><g stroke-linecap="round"><g transform="translate(581 154) rotate(0 -0.39631443299356306 68.5074198488146)"><path d="M-1.19 0.77 C-1.18 23.57, 0.19 114.21, 0.21 136.89 M0.39 0.12 C0.24 22.59, -0.78 112.76, -0.63 135.23" stroke="#1e1e1e" stroke-width="1" fill="none"></path></g><g transform="translate(581 154) rotate(0 -0.39631443299356306 68.5074198488146)"><path d="M-9.51 107.35 C-6.08 114.21, -2.94 123.06, -0.41 134.02 M-10.1 107.44 C-6.22 117.33, -3.35 130.42, 0.24 135.94" stroke="#1e1e1e" stroke-width="1" fill="none"></path></g><g transform="translate(581 154) rotate(0 -0.39631443299356306 68.5074198488146)"><path d="M11.01 107.43 C7.96 114.06, 4.64 122.89, -0.41 134.02 M10.42 107.52 C6.13 117.4, 0.83 130.46, 0.24 135.94" stroke="#1e1e1e" stroke-width="1" fill="none"></path></g></g><mask></mask><g transform="translate(498 328) rotate(0 91.93994903564453 12.5)"><text x="0" y="0" font-family="Virgil, Segoe UI Emoji" font-size="20px" fill="#1e1e1e" text-anchor="start" style="white-space: pre;" direction="ltr" dominant-baseline="text-before-edge">AUDIO RESPONSE</text></g><g transform="translate(45 127) rotate(0 87.62993621826172 12.5)"><text x="0" y="0" font-family="Virgil, Segoe UI Emoji" font-size="20px" fill="#e03131" text-anchor="start" style="white-space: pre;" direction="ltr" dominant-baseline="text-before-edge">Whisper Model !!  </text></g><g transform="translate(799 175) rotate(0 244.7298583984375 37.5)"><text x="0" y="0" font-family="Virgil, Segoe UI Emoji" font-size="20px" fill="#e03131" text-anchor="start" style="white-space: pre;" direction="ltr" dominant-baseline="text-before-edge">CHATGPT : 3.5 TURBO</text><text x="0" y="25" font-family="Virgil, Segoe UI Emoji" font-size="20px" fill="#e03131" text-anchor="start" style="white-space: pre;" direction="ltr" dominant-baseline="text-before-edge">    - Payware </text><text x="0" y="50" font-family="Virgil, Segoe UI Emoji" font-size="20px" fill="#e03131" text-anchor="start" style="white-space: pre;" direction="ltr" dominant-baseline="text-before-edge">    - BUT : IT'S AS simple as HTTP API CALL </text></g><g stroke-linecap="round"><g transform="translate(715 103) rotate(0 29.618771216357118 -40.18847056755796)"><path d="M-0.1 -1.09 C10.23 -14.42, 50.62 -66.48, 60.85 -79.48 M-1.61 0.95 C8.65 -12.79, 49.44 -67.67, 59.83 -81.32" stroke="#e03131" stroke-width="1" fill="none"></path></g><g transform="translate(715 103) rotate(0 29.618771216357118 -40.18847056755796)"><path d="M49.28 -52.87 C53.63 -57.95, 56.06 -64.66, 59.16 -83.21 M50.74 -53.54 C53.16 -62.98, 56.68 -71.54, 59.7 -80.62" stroke="#e03131" stroke-width="1" fill="none"></path></g><g transform="translate(715 103) rotate(0 29.618771216357118 -40.18847056755796)"><path d="M32.87 -65.19 C40.62 -67.74, 46.4 -71.94, 59.16 -83.21 M34.33 -65.86 C42.06 -71.33, 50.98 -75.85, 59.7 -80.62" stroke="#e03131" stroke-width="1" fill="none"></path></g></g><mask></mask><g stroke-linecap="round"><g transform="translate(717 134.37091147138074) rotate(0 38.2363222319633 30.64355076868523)"><path d="M-0.38 -0.03 C12.63 10.55, 63.91 52.08, 76.85 62.38 M1.62 -1.09 C14.56 9.25, 63.32 49.99, 75.83 60.7" stroke="#e03131" stroke-width="1" fill="none"></path></g><g transform="translate(717 134.37091147138074) rotate(0 38.2363222319633 30.64355076868523)"><path d="M47.62 50.12 C54.67 53.02, 59.28 52.81, 76.42 62.13 M47.54 49.63 C57.24 52.82, 66.99 56.72, 76.6 61.36" stroke="#e03131" stroke-width="1" fill="none"></path></g><g transform="translate(717 134.37091147138074) rotate(0 38.2363222319633 30.64355076868523)"><path d="M60.85 34.43 C65.09 40.46, 67.04 43.41, 76.42 62.13 M60.77 33.94 C66.24 42.24, 71.66 51.27, 76.6 61.36" stroke="#e03131" stroke-width="1" fill="none"></path></g></g><mask></mask><g transform="translate(795 10) rotate(0 229.0498046875 50)"><text x="0" y="0" font-family="Virgil, Segoe UI Emoji" font-size="20px" fill="#e03131" text-anchor="start" style="white-space: pre;" direction="ltr" dominant-baseline="text-before-edge">LAMA2 : </text><text x="0" y="25" font-family="Virgil, Segoe UI Emoji" font-size="20px" fill="#e03131" text-anchor="start" style="white-space: pre;" direction="ltr" dominant-baseline="text-before-edge">    - Pretty Recent </text><text x="0" y="50" font-family="Virgil, Segoe UI Emoji" font-size="20px" fill="#e03131" text-anchor="start" style="white-space: pre;" direction="ltr" dominant-baseline="text-before-edge">    - Uses Pytorch + Python </text><text x="0" y="75" font-family="Virgil, Segoe UI Emoji" font-size="20px" fill="#e03131" text-anchor="start" style="white-space: pre;" direction="ltr" dominant-baseline="text-before-edge">    - Pretty compilacted to run child process </text></g><g transform="translate(564 357) rotate(0 28.1099853515625 12.5)"><text x="0" y="0" font-family="Virgil, Segoe UI Emoji" font-size="20px" fill="#e03131" text-anchor="start" style="white-space: pre;" direction="ltr" dominant-baseline="text-before-edge">Bark </text></g><g transform="translate(27 388) rotate(0 201.94989013671875 25)"><text x="0" y="0" font-family="Virgil, Segoe UI Emoji" font-size="20px" fill="#2f9e44" text-anchor="start" style="white-space: pre;" direction="ltr" dominant-baseline="text-before-edge">ALL THIS IN MOBILE APPLICATION ? </text><text x="0" y="25" font-family="Virgil, Segoe UI Emoji" font-size="20px" fill="#2f9e44" text-anchor="start" style="white-space: pre;" direction="ltr" dominant-baseline="text-before-edge">        - React Native</text></g></svg>